<?xml version="1.0" encoding="UTF-8"?>
<svg id="Layer_2" data-name="Layer 2" xmlns="http://www.w3.org/2000/svg" xmlns:xlink="http://www.w3.org/1999/xlink" viewBox="0 0 171.07 208.19">
  <defs>
    <style>
      .cls-1 {
        fill: url(#linear-gradient);
      }

      .cls-1, .cls-2 {
        stroke-width: 0px;
      }

      .cls-2 {
        fill: #fff;
      }
    </style>
    <linearGradient id="linear-gradient" x1="0" y1="104.1" x2="102.9" y2="104.1" gradientUnits="userSpaceOnUse">
      <stop offset="0" stop-color="#87c540"/>
      <stop offset="1" stop-color="#6acef1"/>
    </linearGradient>
  </defs>
  <g id="Layer_1-2" data-name="Layer 1">
    <g>
      <path class="cls-2" d="M13.25,207.56c-4.22,0-7.49-1.2-9.79-3.6-2.3-2.4-3.46-5.8-3.46-10.22V14.31C0,9.7,1.15,6.24,3.46,3.94,5.76,1.64,9.02.48,13.25.48s7.78,1.15,10.08,3.46c2.3,2.3,3.46,5.76,3.46,10.37v76.9h117.5V14.31c0-4.61,1.15-8.06,3.46-10.37,2.3-2.3,5.66-3.46,10.08-3.46s7.49,1.15,9.79,3.46c2.3,2.3,3.46,5.76,3.46,10.37v179.42c0,4.42-1.15,7.83-3.46,10.22-2.3,2.4-5.57,3.6-9.79,3.6s-7.78-1.2-10.08-3.6c-2.3-2.4-3.46-5.8-3.46-10.22v-79.78H26.78v79.78c0,4.42-1.11,7.83-3.31,10.22-2.21,2.4-5.62,3.6-10.22,3.6Z"/>
      <path class="cls-1" d="M13.54,208.19c-4.23,0-7.54-1.25-9.94-3.74-2.4-2.49-3.6-5.85-3.6-10.08V13.54C0,9.12,1.15,5.76,3.46,3.46,5.76,1.15,9.02,0,13.25,0s7.78,1.15,10.08,3.46,3.46,5.67,3.46,10.08v171.62h64.58c4.03,0,6.06.96,8.07,2.88,2.02,1.92,3.46,4.77,3.46,8.42,0,3.84-1.65,6.21-3.67,8.22s-5.38,2.89-9.41,2.89l-76.29.64Z"/>
    </g>
  </g>
</svg>