<?xml version="1.0" encoding="UTF-8"?>
<svg id="Layer_2" data-name="Layer 2" xmlns="http://www.w3.org/2000/svg" xmlns:xlink="http://www.w3.org/1999/xlink" viewBox="0 0 250 250">
  <defs>
    <style>
      .cls-1 {
        fill: url(#linear-gradient);
      }

      .cls-1, .cls-2 {
        stroke-width: 0px;
      }

      .cls-2 {
        fill: #252525;
      }
    </style>
    <linearGradient id="linear-gradient" x1="50" y1="125" x2="200" y2="125" gradientUnits="userSpaceOnUse">
      <stop offset="0" stop-color="#87c540"/>
      <stop offset="1" stop-color="#6acef1"/>
    </linearGradient>
  </defs>
  <g id="Layer_1-2" data-name="Layer 1">
    <rect class="cls-2" width="250" height="250" rx="24.94" ry="24.94"/>
    <path class="cls-1" d="M196.97,37.18c-2.02-2.02-4.88-3.03-8.59-3.03s-6.82,1.01-8.84,3.03c-2.02,2.02-3.03,5.05-3.03,9.09v67.42h-103.03V45.59c0-3.87-1.01-6.82-3.03-8.84s-4.97-3.03-8.84-3.03-6.57,1.01-8.59,3.03c-2.02,2.02-3.03,4.97-3.03,8.84v158.56c0,3.71,1.05,6.65,3.16,8.84,2.1,2.19,5.01,3.28,8.71,3.28l66.89-.56c3.54,0,6.49-.76,8.25-2.53,1.77-1.77,3.22-3.84,3.22-7.21,0-3.2-1.27-5.69-3.04-7.38-1.77-1.68-3.54-2.53-7.08-2.53h-56.63v-62.43h103.03v69.95c0,3.87,1.01,6.86,3.03,8.96,2.02,2.1,4.96,3.16,8.84,3.16s6.57-1.05,8.59-3.16c2.02-2.1,3.03-5.09,3.03-8.96V46.27c0-4.04-1.01-7.07-3.03-9.09Z"/>
  </g>
</svg>